<svg width="18" height="26" viewBox="0 0 18 26" fill="none" xmlns="http://www.w3.org/2000/svg">
<path fill-rule="evenodd" clip-rule="evenodd" d="M9.542 25.2545C11.4867 23.06 18 15.2718 18 9.38985C18 7.03213 17.0518 4.77095 15.364 3.10378C13.6763 1.4366 11.387 0.5 9 0.5C6.61305 0.5 4.32387 1.4366 2.63605 3.10378C0.948199 4.77095 0 7.03213 0 9.38985C0 15.2718 6.51318 23.06 8.45802 25.2545C8.7489 25.5828 9.251 25.5828 9.542 25.2545ZM9 15.7115C12.5505 15.7115 15.4285 12.8738 15.4285 9.3734C15.4285 5.87292 12.5505 3.03525 9 3.03525C5.44963 3.03525 2.57145 5.87292 2.57145 9.3734C2.57145 12.8738 5.44963 15.7115 9 15.7115Z" fill="white"/>
</svg>
