<?xml version="1.0" encoding="UTF-8"?>
<svg id="Layer_2" data-name="Layer 2" xmlns="http://www.w3.org/2000/svg" viewBox="0 0 338.95 400.16">
  <defs>
    <style>
      .cls-1 {
        letter-spacing: -.03em;
      }

      .cls-2, .cls-3 {
        fill: #459b45;
      }

      .cls-2, .cls-4, .cls-5 {
        stroke-width: 0px;
      }

      .cls-3 {
        font-family: MendlSans-DuskSemiBold, 'Mendl Sans';
        font-size: 32.25px;
        font-weight: 600;
      }

      .cls-6 {
        letter-spacing: .03em;
      }

      .cls-7 {
        letter-spacing: .03em;
      }

      .cls-4 {
        fill: #78e3f4;
      }

      .cls-5 {
        fill: #e5790e;
      }

      .cls-8 {
        letter-spacing: -.06em;
      }
    </style>
  </defs>
  <g id="Layer_1-2" data-name="Layer 1">
    <g>
      <g>
        <polygon class="cls-5" points="275.81 359.88 280.95 357.28 286.65 361.01 288.41 358.33 281.93 354.09 280.33 354 274.36 357.01 275.81 359.88"/>
        <polygon class="cls-5" points="290.79 362.69 296.53 366.45 291.01 369.24 292.46 372.11 297.98 369.32 297.67 374.87 300.88 375.05 301.34 366.72 300.62 365.28 292.55 360 290.79 362.69"/>
        <polygon class="cls-5" points="286.67 371.15 279.98 374.53 274.54 370.98 272.79 373.67 278.23 377.21 277.84 384.07 281.05 384.25 281.43 377.39 288.11 374.02 286.67 371.15"/>
        <polygon class="cls-5" points="297.39 379.87 296.94 387.96 290.88 391.02 292.33 393.89 299.22 390.41 300.1 389.07 300.6 380.05 297.39 379.87"/>
        <polygon class="cls-5" points="286.54 392.93 280.39 396.04 280.77 389.25 277.56 389.07 277.18 395.86 270.82 391.7 269.06 394.39 277.75 400.07 279.36 400.16 287.99 395.8 286.54 392.93"/>
        <polygon class="cls-5" points="267.03 390.04 261.95 386.72 262.36 379.31 259.16 379.13 258.69 387.46 259.41 388.9 265.27 392.73 267.03 390.04"/>
        <path class="cls-5" d="M262.64,374.31l.35-6.18,5.99,3.91,1.76-2.69-6.04-3.94,7.12-3.6-1.45-2.87-9.55,4.82-.88,1.34-.5,9.02,3.21.18ZM263.09,366.22l.12-.06-.12.19v-.13Z"/>
      </g>
      <path class="cls-5" d="M0,354.61h.59l21.7,18.77v-17.97h7.82v42.61h-7.82v-14.57l-14.47-12.66v27.23H0v-43.41Z"/>
      <path class="cls-5" d="M57.23,354.55h.59l21,43.48h-8.76l-3.18-6.98h-18.7l-3.35,6.98h-8.59l21-43.48ZM63.4,383.57l-5.88-12.85-5.88,12.85h11.76Z"/>
      <path class="cls-5" d="M74.64,355.41h9l12.23,26.62,12.12-26.62h8.76l-20.76,43.48h-.59l-20.76-43.48Z"/>
      <path class="cls-5" d="M122.86,355.41h7.82v42.61h-7.82v-42.61Z"/>
      <path class="cls-5" d="M174.8,397.16c-3.25,1.03-7.02,1.54-11.29,1.54-4.67,0-8.74-.92-12.23-2.75-3.49-1.83-6.2-4.39-8.15-7.69-1.94-3.29-2.91-7.16-2.91-11.61s.98-8.38,2.94-11.67c1.96-3.29,4.74-5.84,8.35-7.63,3.61-1.79,7.86-2.69,12.76-2.69,1.14,0,2.46.1,3.97.31,1.51.21,2.7.45,3.56.74v7.72c-1.1-.29-2.31-.5-3.65-.65-1.33-.14-2.63-.22-3.88-.22-3.26,0-6.08.58-8.47,1.73-2.39,1.15-4.23,2.78-5.53,4.88s-1.94,4.59-1.94,7.47c0,4.49,1.36,8.03,4.09,10.62,2.72,2.59,6.42,3.89,11.09,3.89,1.22,0,2.37-.08,3.47-.25v-17.41h7.82v23.65Z"/>
      <path class="cls-5" d="M201.03,354.55h.59l21,43.48h-8.76l-3.18-6.98h-18.7l-3.35,6.98h-8.59l21-43.48ZM207.2,383.57l-5.88-12.85-5.88,12.85h11.76Z"/>
      <path class="cls-5" d="M233.2,363.07h-11.29v-7.66h30.41v7.66h-11.29v34.95h-7.82v-34.95Z"/>
      <path class="cls-5" d="M308.07,355.41h16c4.31,0,7.64,1.02,9.97,3.06,2.33,2.04,3.5,4.91,3.5,8.61,0,4.9-2.14,8.73-6.41,11.49l7.82,19.45h-8.59l-6.18-16.55-8.29,2.66v13.9h-7.82v-42.61ZM321.18,374.87c3.02-.86,5.15-1.85,6.38-2.96s1.85-2.61,1.85-4.51c0-1.4-.53-2.49-1.59-3.27-1.06-.78-2.55-1.17-4.47-1.17h-7.47v13.4l5.29-1.48Z"/>
    </g>
    <text class="cls-3" transform="translate(25.17 341.61) scale(1 1.05)"><tspan class="cls-7" x="0" y="0">BR</tspan><tspan class="cls-1" x="42.34" y="0">O</tspan><tspan class="cls-6" x="67.97" y="0">ADBENT </tspan><tspan class="cls-8" x="204.98" y="0">P</tspan><tspan class="cls-6" x="222.36" y="0">ARK</tspan></text>
    <path class="cls-2" d="M138.39,251.98c3.97-22.49,33.07-51.59,33.07-51.59,0,0,34.03-34.88-2.01-35.39,0,0-70.97,0-141,14,9,70,78.39,112,141.03,112,.29,0,.58,0,.87-.01-13.16-7.82-34.74-23.25-31.96-39.01Z"/>
    <path class="cls-4" d="M169.47,0C89.12,0,23.97,65.14,23.97,145.5c0,8.87.8,17.56,2.32,26,16.26-3.11,110.18-18.5,166.99-18.06,12.54.1,21.97,1.34,28.82,3.31,6.06-.21,12.01-.38,18.37.25,7,1,13,3,20,3,17.75,1.67,35.39,4.03,52.95,6.79,1.02-6.95,1.55-14.06,1.55-21.29C314.97,65.14,249.83,0,169.47,0ZM213.47,112c-7.18,0-13-6.04-13-13.5s5.82-13.5,13-13.5,13,6.04,13,13.5-5.82,13.5-13,13.5Z"/>
    <path class="cls-5" d="M249.87,96.63c-1.04-18.49-15.92-33.6-34.4-34.86-21.67-1.49-39.7,15.65-39.7,36.99,0,8.42,2.81,16.18,7.53,22.4,4.29,5.64,8.14,11.6,11.93,17.59l17.62,27.92,25.49-39.66c1.42-2.21,2.97-4.33,4.52-6.46,4.83-6.64,7.52-14.95,7.02-23.9ZM213.14,112.59c-7.18,0-13-6.04-13-13.5s5.82-13.5,13-13.5,13,6.04,13,13.5-5.82,13.5-13,13.5Z"/>
    <path class="cls-2" d="M267.98,156.85c-28-2-39.31-.46-45.37-.25,17.85,5.14,18.09,15.27,9.54,23.14-26.24,24.16-21.17,39.11-7.94,44.97,20.64,9.14,44.31,17.51,51.79,20.27,19.88-21.15,33.51-48.25,37.93-78.34-17.95-5.79-28.2-8.12-45.95-9.79Z"/>
  </g>
</svg>